<mxfile host="app.diagrams.net" modified="2023-10-26T07:11:11.005Z" agent="Mozilla/5.0 (Macintosh; Intel Mac OS X 10_15_7) AppleWebKit/605.1.15 (KHTML, like Gecko) Version/16.5.1 Safari/605.1.15" version="22.0.8" etag="ggNr5XAqpwnvVg2h7PIH" type="github">
  <diagram name="Seite-1" id="2xyvLNTgmCJKzzGvqvZv">
    <mxGraphModel>
      <root>
        <mxCell id="0" />
        <mxCell id="1" parent="0" />
      </root>
    </mxGraphModel>
  </diagram>
</mxfile>
